<svg width="2686" height="204" viewBox="0 0 2686 204" fill="none" xmlns="http://www.w3.org/2000/svg">
<path d="M2452 204L1741 199L1786 0L1847 109L1943 25L2102 117L2164 55L2315 117L2396 55L2452 204Z" fill="#86B0EE"/>
<path d="M2219 204L1508 199L1553 0L1614 109L1710 25L1869 117L1931 55L2082 117L2163 55L2219 204Z" fill="#86B0EE"/>
<path d="M2686 204L1975 199L2020 0L2081 109L2177 25L2336 117L2398 55L2549 117L2630 55L2686 204Z" fill="#86B0EE"/>
<path d="M1684 204L973 199L1018 0L1079 109L1175 25L1334 117L1396 55L1547 117L1628 55L1684 204Z" fill="#86B0EE"/>
<path d="M1451 204L740 199L785 0L846 109L942 25L1101 117L1163 55L1314 117L1395 55L1451 204Z" fill="#86B0EE"/>
<path d="M1918 204L1207 199L1252 0L1313 109L1409 25L1568 117L1630 55L1781 117L1862 55L1918 204Z" fill="#86B0EE"/>
<path d="M944 204L233 199L278 0L339 109L435 25L594 117L656 55L807 117L888 55L944 204Z" fill="#86B0EE"/>
<path d="M711 204L0 199L45 0L106 109L202 25L361 117L423 55L574 117L655 55L711 204Z" fill="#86B0EE"/>
<path d="M1178 204L467 199L512 0L573 109L669 25L828 117L890 55L1041 117L1122 55L1178 204Z" fill="#86B0EE"/>
</svg>
